<?xml version="1.0" encoding="UTF-8" standalone="no"?>
<!DOCTYPE svg PUBLIC "-//W3C//DTD SVG 1.1//EN" "http://www.w3.org/Graphics/SVG/1.1/DTD/svg11.dtd">
<svg width="100%" height="100%" viewBox="0 0 128 128" version="1.1" xmlns="http://www.w3.org/2000/svg" xmlns:xlink="http://www.w3.org/1999/xlink" xml:space="preserve" xmlns:serif="http://www.serif.com/" style="fill-rule:evenodd;clip-rule:evenodd;stroke-linejoin:round;stroke-miterlimit:2;">
    <g transform="matrix(0.00625,0,0,-0.00625,0,128)">
        <path d="M10035,20273C10019,20271 9904,20261 9780,20249C9656,20238 3256,18584 3179,18565C3034,18529 3017,18523 2786,18421C2248,18184 1887,17803 1702,17280C1615,17035 1602,16970 1575,16635C1567,16531 1542,16270 1520,16055C1429,15157 1425,15058 1439,13951C1451,13002 1456,12891 1496,12630C1561,12199 1581,12050 1600,11836C1626,11543 1659,11320 1709,11088C1731,10987 1760,10847 1774,10775C1788,10704 1819,10575 1843,10490C1868,10405 1900,10268 1915,10185C1930,10103 1955,9986 1971,9925C1988,9865 2025,9721 2054,9605C2084,9490 2130,9337 2158,9265C2186,9194 2222,9086 2240,9025C2257,8965 2293,8862 2320,8795C2346,8729 2382,8626 2399,8566C2417,8506 2453,8400 2479,8331C2506,8262 2542,8160 2560,8106C2577,8051 2609,7972 2630,7929C2652,7886 2686,7812 2706,7763C2737.86,7686.54 2829.3,7499.73 2883,7375C2913,7304 2958,7205 2982,7155C3007,7106 3032,7049 3040,7030C3073,6940 3233,6618 3318,6470C3370,6379 3465,6215 3528,6105C3592,5995 3660,5876 3680,5840C3861,5518 4025,5262 4259,4937C4307,4870 4391,4750 4445,4670C5097,3713 6360,2381 7275,1685C7369,1614 7519,1497 7610,1425C7817,1262 7928,1188 8305,964C8470,866 8706,725 8830,651C9859,36 10563,14 11480,569C11532,600 11643,666 11725,715C11808,763 11925,833 11985,870C12046,907 12191,994 12309,1065C12538,1201 12676,1294 12860,1440C12923,1490 13043,1583 13125,1647C13511,1947 13513,1948 13995,2391C14211,2589 14401,2777 14671,3061C15139,3551 15053,3450 15705,4260C15760,4329 15850,4450 15905,4530C15959,4610 16047,4736 16100,4810C16336,5141 16558,5471 16624,5588C16663,5658 16734,5782 16875,6025C16928,6116 16997,6236 17122,6455C17160,6521 17217,6629 17249,6695C17353.7,6909.34 17591.1,7426.45 17595,7436C17635.5,7531.07 17719.5,7698.91 17774,7829C17806,7903 17842,7984 17855,8009C17869.1,8038.43 17910,8159.59 17914.4,8172.79C17930.2,8219.6 17945,8266.74 17961.2,8313.38C17975.3,8353.57 17991.1,8393.12 18005.4,8433.25C18056.4,8576.95 18074.5,8636.18 18080,8654C18102,8729 18140,8838 18165,8898C18189,8957 18222,9055 18239,9116C18256,9176 18293,9284 18321,9355C18358,9448 18382,9530 18406,9650C18425,9741 18456,9869 18474,9935C18524,10107 18536,10158 18564,10315C18578,10393 18608,10521 18631,10600C18723,10926 18836,11601 18880,12085C18899,12298 18917,12439 18970,12790C18993,12943 19002,13188 19021,14155C19036,14918 19033,14976 18950,15764C18917,16082 18896,16346 18880,16630C18867,16878 18862,16905 18789,17140C18669,17528 18553,17733 18326,17962C18118,18171 17939,18299 17720,18394C17684,18410 17607,18444 17549,18471C17481,18502 11557,20135 11360,20160C11269,20172 11128,20192 11045,20205C10735,20255 10188,20292 10035,20273ZM10420,18905C10489,18897 10637,18882 10750,18870C11142,18832 11852,18709 12105,18635C12269,18588 16262.6,17470 16303.6,17457.7C16601.8,17369 16849.5,17290.1 16850,17290C17190,17204 17367,17086 17477,16875C17566,16701 17579,16635 17600,16210C17616,15905 17642,15594 17690,15155C17722,14863 17723,14759 17706,14050C17686,13218 17677,13042 17646,12820C17632,12724 17611,12542 17600,12415C17574,12120 17571,12103 17494,11610C17428,11186 17408,11086 17346,10873C17327,10806 17297,10673 17279,10578C17262,10483 17228,10336 17204,10253C17180,10169 17148,10047 17135,9983C17106,9850 17082,9771 17035,9655C16999.4,9572.6 16925.9,9313.03 16875,9190C16827.8,9071 16769.3,8858.09 16723,8745C16698,8685 16662,8590 16643,8536C16624,8481 16589,8397 16564,8349C16540,8301 16504,8222 16484,8173C16446,8081.74 16356.7,7903.15 16324,7823C16290.4,7742.47 16191.9,7541.35 16160,7465C16105,7333 16036,7208 15750,6715C15702,6633 15624,6498 15577,6415C15459,6209 15375,6078 15207,5839C15128,5727 15010,5559 14945,5465C14725,5149 14561,4953 13985,4310C13869,4181 13707,3999 13625,3905C13357,3602 13308,3558 12150,2595C11833,2332 11817,2320 11574,2175C11464,2110 11265,1990 11130,1910C10240,1378 10168,1382 9180,1993C9144,2016 9075,2057 9025,2085C8814,2206 8651,2311 8550,2390C8379,2524 8038,2807 7796,3014C7675,3119 7472,3290 7345,3396C7108,3593 6984,3714 6820,3905C6670,4080 6460,4319 6263,4537C5868,4977 5743,5125 5613,5310C5114,6020 5026,6148 4965,6255C4933,6310 4886,6391 4860,6435C4584,6905 4365,7294 4319,7401C4299,7448 4263,7523 4241,7568C4219,7612 4184,7688 4164,7737C4127.1,7825.56 4032.9,8014.44 3996,8103C3976,8152 3940,8230 3916,8278C3856,8399 3726,8729 3679,8883C3657,8954 3622,9056 3600,9110C3579,9164 3543,9268 3521,9341C3499,9415 3462,9520 3440,9575C3375,9733 3237,10241 3187,10510C3173,10584 3143,10708 3120,10785C3067.21,10969.8 3021.57,11232 2995,11355C2952,11558 2915,11801 2895,12003C2887,12089 2873,12231 2865,12318C2856,12404 2831,12594 2809,12740C2761,13057 2757,13139 2739,14120C2725,14882 2726,14898 2786,15490C2846,16085 2849,16119 2869,16403C2910,16957 3063,17148 3578,17285C3670,17310 9314,18832 9700,18871C9813,18882 9955,18897 10015,18904C10164,18922 10271,18923 10420,18905Z" style="fill:oklch(70% 0.18 45);fill-rule:nonzero;"/>
        <path d="M6353,14909C6056,14859 6030,14786 6030,13972C6030,13164 5988,13276 6520,12675C6666,12510 8339,10651 8477,10499C8758,10190 8800,10136 8833,10041C8855,9975 8855,9975 8860,8210C8866,6235 8859,6407 8938,6284C9046,6118 9185,6076 9385,6149C9435,6167 10439,6500 10505,6521C11201,6751 11252,6776 11323,6916C11377,7023 11374,6939 11380,8520C11386,10174 11378,10016 11458,10138C11507,10213 13506,12436 13648,12591C14276,13278 14230,13169 14230,13980C14230,14766 14203,14840 13895,14905C13815,14922 6454,14926 6353,14909Z" style="fill:oklch(70% 0.18 45);fill-rule:nonzero;"/>
    </g>
</svg>
