<?xml version="1.0" encoding="UTF-8" standalone="no"?>
<!DOCTYPE svg PUBLIC "-//W3C//DTD SVG 1.1//EN" "http://www.w3.org/Graphics/SVG/1.1/DTD/svg11.dtd">
<svg width="100%" height="100%" viewBox="0 0 720 720" color="rgb(0,170,255)" version="1.1" xmlns="http://www.w3.org/2000/svg" xmlns:xlink="http://www.w3.org/1999/xlink" xml:space="preserve" xmlns:serif="http://www.serif.com/" style="fill-rule:evenodd;clip-rule:evenodd;stroke-linejoin:round;stroke-miterlimit:2;">
    <g id="sky" fill="currentColor">
        <path d="M454.535,128.09L608.107,216.755L608.107,503.245L548.74,537.521L548.74,251.3L548.813,251.258L548.752,251.223L548.786,251.204L548.74,251.177L548.74,251.124L548.695,251.098L548.695,250.994L548.643,250.964L548.695,250.934L454.347,196.462L360,250.934L360,251.047L265.721,305.479L265.653,305.44L265.653,374.025L206.255,339.732L206.255,271.434L454.535,128.09Z"/>
        <path d="M513.587,557.817L360,646.49L111.893,503.245L111.893,434.774L359.95,577.99L359.95,578.114L360.057,578.052L360.068,578.058L360.121,578.028L360.121,578.089L454.468,523.617L454.468,414.674L454.37,414.617L454.37,305.753L454.438,305.713L454.347,305.661L454.347,305.539L454.33,305.529L454.347,305.519L395.165,271.35L454.439,237.128L513.587,271.277L513.587,557.817Z"/>
        <path d="M111.893,394.222L111.893,216.755L360,73.51L419.551,107.892L171.547,251.077L171.305,250.937L171.305,251.19L171.282,251.177L171.282,251.23L171.237,251.256L171.253,360.229L265.6,414.701L265.698,414.644L359.978,469.076L359.978,469.155L419.375,434.862L419.375,503.292L360.091,537.519L111.893,394.222Z"/>
    </g>
</svg>
